<svg width="31" height="27" viewBox="0 0 31 27" fill="none" xmlns="http://www.w3.org/2000/svg">
<path d="M5.17829 4.13321C5.20549 4.14681 5.20549 4.14681 5.23325 4.16069C5.21826 4.18003 5.20328 4.19937 5.18784 4.2193C4.48133 5.14441 4.0437 6.2411 3.8644 7.38959C3.86132 7.40925 3.85824 7.4289 3.85507 7.44915C3.7974 7.86046 3.79684 8.28035 3.7957 8.6949C3.79562 8.72103 3.79553 8.74717 3.79545 8.7741C3.79503 9.37648 3.8551 9.96063 3.9772 10.5509C3.99698 10.6476 4.01497 10.7446 4.03271 10.8418C4.08686 11.1109 4.16461 11.3727 4.24396 11.6353C4.25267 11.6643 4.26137 11.6934 4.27033 11.7233C4.29775 11.8143 4.32573 11.9052 4.35388 11.9959C4.36234 12.0239 4.37079 12.0519 4.37951 12.0807C4.47508 12.3834 4.63336 12.6421 4.80902 12.9045C4.82561 12.9293 4.84219 12.9541 4.85928 12.9797C5.0708 13.2917 5.30911 13.5796 5.56397 13.8571C5.61357 13.9113 5.66137 13.9666 5.70899 14.0226C5.9083 14.2511 6.12813 14.4629 6.35993 14.6581C6.38674 14.6812 6.41356 14.7043 6.44119 14.7282C7.54138 15.6747 8.8665 16.3771 10.2621 16.774C10.2924 16.7827 10.2924 16.7827 10.3233 16.7915C11.8364 17.2172 13.4919 17.3091 15.0436 17.0488C15.0629 17.0456 15.0821 17.0425 15.102 17.0392C17.5026 16.6398 19.8323 15.464 21.7511 13.7153C21.8035 13.6669 21.8563 13.619 21.9095 13.5716C22.4102 13.1243 22.8545 12.609 23.2602 12.0749C23.2725 12.0587 23.2849 12.0424 23.2977 12.0256C23.9032 11.2256 24.3973 10.3467 24.7641 9.4134C24.895 9.08487 25.0606 8.79661 25.2937 8.53002C25.3181 8.50169 25.3181 8.50169 25.3429 8.4728C25.7249 8.05985 26.2958 7.83205 26.8499 7.80705C27.7784 7.78181 28.5275 8.15012 29.1958 8.77734C29.4539 9.02634 29.664 9.29918 29.8554 9.60174C29.8672 9.62026 29.8789 9.63878 29.8911 9.65786C30.5239 10.6626 30.824 11.8828 30.8446 13.0642C30.8459 13.1137 30.8459 13.1137 30.8472 13.1641C30.8689 14.0284 30.7899 14.8647 30.5884 15.7063C30.5724 15.774 30.5576 15.8418 30.5435 15.9099C30.1123 17.968 28.789 19.9861 27.1898 21.3357C27.1649 21.3576 27.14 21.3794 27.1143 21.4019C26.1821 22.2149 25.0503 22.8476 23.9008 23.2919C23.8821 23.2992 23.8635 23.3064 23.8442 23.3139C23.5007 23.447 23.5007 23.447 23.343 23.4948C23.044 23.5871 22.8644 23.7625 22.6492 23.9807C22.5402 24.0885 22.4184 24.1811 22.2983 24.2761C22.268 24.3009 22.2378 24.3258 22.2075 24.3508C21.2097 25.1696 20.0639 25.7934 18.8515 26.2292C18.7901 26.2513 18.7288 26.2738 18.6675 26.2966C18.4717 26.3685 18.2746 26.4304 18.0732 26.485C18.0011 26.5048 17.9292 26.5253 17.8573 26.5458C16.8772 26.8212 15.8705 26.9816 14.8513 26.9966C14.8188 26.9972 14.7863 26.9977 14.7528 26.9983C13.0753 27.0234 11.4035 26.7672 9.82241 26.1997C9.79327 26.1895 9.76412 26.1792 9.73409 26.1687C9.2647 26.0038 8.81367 25.8118 8.36597 25.5951C8.33803 25.5817 8.31008 25.5683 8.28129 25.5545C7.85708 25.3506 7.45023 25.123 7.04693 24.8806C7.02389 24.8669 7.00086 24.8532 6.97713 24.8391C6.35023 24.4657 5.76008 24.0386 5.19829 23.5732C5.15545 23.5379 5.1122 23.5032 5.0689 23.4684C4.88404 23.3201 4.7103 23.162 4.53743 23.0001C4.49082 22.9566 4.44393 22.9135 4.39693 22.8704C4.17842 22.6702 3.9656 22.4692 3.7724 22.2441C3.71778 22.1831 3.66027 22.1262 3.60162 22.0691C3.4909 21.9597 3.39316 21.8437 3.29601 21.7223C3.23206 21.6439 3.16623 21.568 3.09932 21.4922C2.89985 21.2659 2.71686 21.0305 2.5402 20.7861C2.52649 20.7672 2.51278 20.7483 2.49866 20.7288C1.4296 19.2478 0.677982 17.5901 0.259359 15.8122C0.253881 15.789 0.248404 15.7659 0.242761 15.742C0.204338 15.5741 0.175933 15.4053 0.149439 15.2351C0.143494 15.1987 0.137545 15.1622 0.131593 15.1257C0.0336394 14.5153 -0.000852473 13.9125 1.5944e-05 13.2944C1.48371e-05 13.2615 1.37299e-05 13.2287 1.25895e-05 13.1949C0.00165528 12.3578 0.0953333 11.5457 0.269503 10.7275C0.280382 10.6763 0.291105 10.6252 0.301599 10.574C0.633334 8.96485 1.43679 7.40694 2.5402 6.19421C2.55624 6.17648 2.57228 6.15874 2.5888 6.14047C2.92175 5.7738 3.27219 5.42291 3.66688 5.12249C3.70065 5.09587 3.73439 5.06921 3.76811 5.04252C4.14591 4.74571 4.54351 4.48279 4.96188 4.24656C4.98288 4.2346 5.00389 4.22264 5.02553 4.21032C5.07549 4.18279 5.12679 4.15773 5.17829 4.13321Z" fill="url(#paint0_linear_3311_5)"/>
<path d="M5.17829 4.13321C5.20549 4.14681 5.20549 4.14681 5.23325 4.16069C5.21826 4.18003 5.20328 4.19937 5.18784 4.2193C4.48133 5.14441 4.0437 6.2411 3.8644 7.38959C3.86132 7.40925 3.85824 7.4289 3.85507 7.44915C3.7974 7.86046 3.79684 8.28035 3.7957 8.6949C3.79562 8.72103 3.79553 8.74717 3.79545 8.7741C3.79503 9.37648 3.8551 9.96063 3.9772 10.5509C3.99698 10.6476 4.01497 10.7446 4.03271 10.8418C4.11218 11.2367 4.23777 11.6209 4.35904 12.0045C4.36818 12.0337 4.37733 12.0628 4.38675 12.0928C4.42279 12.2053 4.45784 12.3106 4.51157 12.416C4.54624 12.4871 4.54624 12.4871 4.54592 12.555C4.54638 12.6541 4.58716 12.7164 4.63384 12.8032C4.69928 12.9282 4.75791 13.052 4.8073 13.1844C4.93937 13.5383 5.09913 13.8716 5.27726 14.2043C5.33223 14.3071 5.38464 14.4108 5.43591 14.5155C6.02067 15.6891 6.74845 16.8158 7.58476 17.8257C7.64062 17.8933 7.69581 17.9615 7.7511 18.0295C7.96094 18.2852 8.17257 18.5373 8.40148 18.7763C8.50337 18.8841 8.50337 18.8841 8.50337 18.945C8.52151 18.945 8.53964 18.945 8.55833 18.945C8.59424 18.9814 8.59424 18.9814 8.63744 19.0342C8.76247 19.1811 8.89832 19.3165 9.0349 19.4526C9.07865 19.4962 9.12225 19.5399 9.16584 19.5837C9.30079 19.7187 9.43676 19.8512 9.58195 19.9753C9.65793 20.0406 9.73045 20.1096 9.80352 20.1781C9.93381 20.2992 10.0669 20.4148 10.2057 20.5261C10.2694 20.5775 10.3323 20.6294 10.3949 20.682C10.6712 20.9137 10.9558 21.1292 11.2514 21.3357C11.2721 21.3503 11.2929 21.3648 11.3143 21.3798C12.2029 22.001 13.1375 22.5598 14.1368 22.9845C14.168 22.9979 14.1992 23.0112 14.2313 23.025C15.5256 23.577 16.8817 23.9583 18.2863 24.0837C18.3135 24.0863 18.3406 24.0889 18.3687 24.0916C18.691 24.1191 19.014 24.1166 19.3374 24.1164C19.368 24.1163 19.3987 24.1163 19.4302 24.1163C19.876 24.1158 20.3161 24.1064 20.7595 24.0562C20.8134 24.0508 20.8674 24.0454 20.9213 24.04C21.3505 23.9943 21.7682 23.9057 22.1884 23.8089C22.2176 23.8023 22.2468 23.7957 22.2768 23.7889C22.3573 23.7706 22.4378 23.7521 22.5182 23.7333C22.5536 23.7252 22.5536 23.7252 22.5898 23.7168C22.6115 23.7117 22.6332 23.7065 22.6556 23.7011C22.6743 23.6967 22.693 23.6923 22.7123 23.6878C22.7673 23.6729 22.7673 23.6729 22.8205 23.6422C22.8754 23.6166 22.8754 23.6166 22.9854 23.6166C22.9424 23.7256 22.8666 23.7929 22.781 23.869C22.7662 23.8823 22.7514 23.8956 22.7362 23.9093C22.5942 24.0364 22.4471 24.1569 22.2983 24.2761C22.2679 24.3011 22.2375 24.3261 22.2071 24.3512C21.209 25.1696 20.0639 25.7934 18.8515 26.2292C18.7901 26.2513 18.7288 26.2738 18.6675 26.2966C18.4717 26.3685 18.2746 26.4304 18.0732 26.485C18.0011 26.5048 17.9292 26.5253 17.8573 26.5458C16.8772 26.8212 15.8705 26.9816 14.8513 26.9966C14.8188 26.9972 14.7863 26.9977 14.7528 26.9983C13.0753 27.0234 11.4035 26.7672 9.82241 26.1997C9.79327 26.1895 9.76412 26.1792 9.73409 26.1687C9.2647 26.0038 8.81367 25.8118 8.36597 25.5951C8.33803 25.5817 8.31008 25.5683 8.28129 25.5545C7.85708 25.3506 7.45023 25.123 7.04693 24.8806C7.02389 24.8669 7.00086 24.8532 6.97713 24.8391C6.35023 24.4657 5.76008 24.0386 5.19829 23.5732C5.15545 23.5379 5.1122 23.5032 5.0689 23.4684C4.88404 23.3201 4.7103 23.162 4.53743 23.0001C4.49082 22.9566 4.44393 22.9135 4.39693 22.8704C4.17842 22.6702 3.9656 22.4692 3.7724 22.2441C3.71778 22.1831 3.66027 22.1262 3.60162 22.0691C3.4909 21.9597 3.39316 21.8437 3.29601 21.7223C3.23206 21.6439 3.16623 21.568 3.09932 21.4922C2.89985 21.2659 2.71686 21.0305 2.5402 20.7861C2.52649 20.7672 2.51278 20.7483 2.49866 20.7288C1.4296 19.2478 0.677982 17.5901 0.259359 15.8122C0.253881 15.789 0.248404 15.7659 0.242761 15.742C0.204338 15.5741 0.175933 15.4053 0.149439 15.2351C0.143494 15.1987 0.137545 15.1622 0.131593 15.1257C0.0336394 14.5153 -0.000852473 13.9125 1.5944e-05 13.2944C1.48371e-05 13.2615 1.37299e-05 13.2287 1.25895e-05 13.1949C0.00165528 12.3578 0.0953333 11.5457 0.269503 10.7275C0.280382 10.6763 0.291105 10.6252 0.301599 10.574C0.633334 8.96485 1.43679 7.40694 2.5402 6.19421C2.55624 6.17648 2.57228 6.15874 2.5888 6.14047C2.92175 5.7738 3.27219 5.42291 3.66688 5.12249C3.70065 5.09587 3.73439 5.06921 3.76811 5.04252C4.14591 4.74571 4.54351 4.48279 4.96188 4.24656C4.98288 4.2346 5.00389 4.22264 5.02553 4.21032C5.07549 4.18279 5.12679 4.15773 5.17829 4.13321Z" fill="url(#paint1_linear_3311_5)"/>
<path d="M17.1493 0.0850507C17.1685 0.0873555 17.1877 0.0896602 17.2075 0.0920348C17.6271 0.14312 18.0382 0.22304 18.4512 0.313479C18.4942 0.322575 18.5372 0.331664 18.5803 0.340744C19.3084 0.498892 20.0642 0.722676 20.732 1.05544C20.7797 1.07807 20.8275 1.1006 20.8753 1.12307C21.8364 1.57558 22.7111 2.115 23.535 2.78668C23.5707 2.81527 23.5707 2.81527 23.6072 2.84443C23.7868 2.989 23.9573 3.14168 24.126 3.29855C24.1922 3.35948 24.2596 3.41897 24.3267 3.47884C24.4303 3.5728 24.5241 3.6694 24.614 3.77639C24.6672 3.83728 24.7239 3.89306 24.7819 3.94943C24.9183 4.08445 25.0368 4.23054 25.1563 4.38052C25.1814 4.41108 25.2065 4.4416 25.2316 4.47209C25.7492 5.10302 26.2905 5.84012 26.5852 6.60641C26.4797 6.56804 26.3923 6.51828 26.2984 6.45698C25.9046 6.20853 25.4794 6.01635 25.0429 5.85662C24.9938 5.83786 24.9455 5.81675 24.8974 5.79553C24.7812 5.74708 24.6638 5.71081 24.5431 5.67552C24.5189 5.6684 24.4946 5.66129 24.4697 5.65395C24.4199 5.63938 24.37 5.62487 24.3202 5.6104C24.2571 5.59191 24.1944 5.57273 24.1316 5.55326C22.1154 4.94107 19.7366 5.08525 17.7092 5.56217C17.6721 5.57085 17.6721 5.57085 17.6342 5.5797C15.6276 6.05767 13.7555 7.0044 12.0483 8.14529C12.0239 8.16158 11.9995 8.17787 11.9744 8.19465C11.5381 8.4869 11.1148 8.79395 10.698 9.1131C10.0106 9.63923 9.31944 10.0893 8.44783 10.2252C8.40235 10.2324 8.35707 10.2409 8.31188 10.2498C7.73114 10.3298 7.10003 10.2253 6.57978 9.95897C6.54259 9.9408 6.54259 9.9408 6.50464 9.92226C6.07361 9.70187 5.73169 9.35207 5.48058 8.94221C5.47069 8.92611 5.46079 8.91 5.45059 8.89341C5.03438 8.1952 5.05166 7.36835 5.24041 6.60202C5.58436 5.28138 6.47875 4.03317 7.50326 3.14628C7.57813 3.08107 7.64974 3.01287 7.72192 2.94469C7.92431 2.75714 8.14456 2.5936 8.36599 2.42944C8.39565 2.40722 8.39565 2.40722 8.42591 2.38454C8.93628 2.00274 9.47862 1.68169 10.0423 1.3852C10.0618 1.37491 10.0813 1.36461 10.1013 1.354C10.8564 0.957866 11.6688 0.646924 12.4966 0.441795C12.5731 0.422739 12.6492 0.402752 12.7254 0.382715C14.1669 0.0117618 15.6713 -0.0940902 17.1493 0.0850507Z" fill="url(#paint2_linear_3311_5)"/>
<path d="M28.858 8.48453C29.2579 8.80482 29.5818 9.16916 29.8554 9.60177C29.8672 9.6203 29.879 9.63882 29.8911 9.6579C30.5239 10.6626 30.824 11.8828 30.8447 13.0643C30.8455 13.0972 30.8464 13.1302 30.8472 13.1642C30.8689 14.0284 30.79 14.8647 30.5884 15.7063C30.5724 15.7741 30.5576 15.8418 30.5436 15.9099C30.1123 17.9681 28.789 19.9861 27.1898 21.3358C27.1649 21.3576 27.14 21.3795 27.1143 21.402C26.1763 22.2201 25.0401 22.849 23.8853 23.3006C23.8667 23.3079 23.848 23.3153 23.8287 23.3229C23.7748 23.344 23.7208 23.3649 23.6668 23.3856C23.6354 23.3977 23.6041 23.4098 23.5718 23.4222C23.4769 23.4527 23.3865 23.468 23.2876 23.4792C23.3254 23.4105 23.3254 23.4105 23.3701 23.3418C23.3882 23.3418 23.4064 23.3418 23.425 23.3418C23.4341 23.3146 23.4432 23.2874 23.4525 23.2594C23.489 23.2225 23.5257 23.1859 23.5624 23.1494C23.6177 23.0817 23.6699 23.0117 23.7222 22.9416C23.7368 22.9221 23.7514 22.9025 23.7665 22.8824C23.8645 22.75 23.9565 22.6152 24.0428 22.4749C24.0842 22.4081 24.1278 22.3434 24.1722 22.2787C24.245 22.1696 24.3041 22.0591 24.3594 21.9403C24.3749 21.9071 24.3904 21.8739 24.406 21.8407C24.4313 21.7865 24.4566 21.7323 24.4817 21.678C24.5191 21.5973 24.5573 21.5172 24.5977 21.4379C24.6328 21.366 24.65 21.3047 24.6616 21.2258C24.6798 21.2258 24.6979 21.2258 24.7166 21.2258C24.7234 21.193 24.7302 21.1601 24.7372 21.1262C24.7702 20.977 24.8131 20.8309 24.8555 20.6841C24.9634 20.3091 25.001 19.9535 25.0001 19.5648C25 19.4911 25.0006 19.4174 25.0013 19.3438C25.0044 19.0282 25.0044 19.0282 24.929 18.7237C24.9064 18.6633 24.8954 18.6049 24.8849 18.5414C24.8615 18.4176 24.8261 18.2986 24.787 18.179C24.7814 18.1613 24.7757 18.1437 24.7699 18.1255C24.737 18.0275 24.6991 17.9532 24.6342 17.8733C24.6228 17.8455 24.6115 17.8177 24.5998 17.7891C24.3095 17.099 23.5686 16.5333 22.8929 16.2524C22.6612 16.1649 22.4234 16.0994 22.1811 16.0482C22.1194 16.035 22.06 16.019 21.9995 16.0012C21.6933 15.9253 21.3506 15.9445 21.0368 15.9446C20.9721 15.9445 20.9075 15.944 20.8428 15.9435C20.6398 15.9427 20.4484 15.9485 20.249 15.9912C20.139 16.0134 20.0279 16.0188 19.9162 16.027C19.6636 16.0478 19.4199 16.0929 19.1728 16.1485C19.0337 16.1797 18.8982 16.2038 18.7564 16.2175C18.6618 16.2289 18.5708 16.2519 18.4786 16.276C18.4609 16.2804 18.4431 16.2848 18.4247 16.2894C18.3285 16.314 18.2347 16.3422 18.1408 16.3749C17.9705 16.4328 17.7951 16.4671 17.6194 16.5046C17.5936 16.5102 17.5678 16.5159 17.5412 16.5217C17.518 16.5266 17.4948 16.5316 17.471 16.5367C17.4074 16.5541 17.3557 16.5798 17.297 16.6092C17.2329 16.6183 17.1688 16.6275 17.1046 16.6367C17.0859 16.6463 17.0672 16.6559 17.048 16.6659C16.9743 16.7015 16.9104 16.6953 16.8298 16.6916C16.8298 16.6644 16.8298 16.6372 16.8298 16.6092C16.8463 16.6036 16.8628 16.5979 16.8798 16.5922C17.8549 16.2571 18.7776 15.8238 19.6603 15.2901C19.6815 15.2773 19.7028 15.2645 19.7247 15.2513C20.4525 14.8098 21.1276 14.2944 21.7511 13.7153C21.8035 13.6669 21.8563 13.619 21.9096 13.5717C22.4102 13.1243 22.8545 12.6091 23.2602 12.075C23.2726 12.0587 23.2849 12.0424 23.2977 12.0256C23.9032 11.2257 24.3973 10.3468 24.7641 9.41343C24.895 9.08491 25.0606 8.79665 25.2937 8.53005C25.3181 8.50173 25.3181 8.50173 25.343 8.47284C26.2845 7.45501 27.8652 7.70265 28.858 8.48453Z" fill="#57BFFF"/>
<defs>
<linearGradient id="paint0_linear_3311_5" x1="12.7095" y1="21.8054" x2="23.468" y2="16.6941" gradientUnits="userSpaceOnUse">
<stop stop-color="#57BFFF"/>
<stop offset="1" stop-color="#239BE5"/>
</linearGradient>
<linearGradient id="paint1_linear_3311_5" x1="3.96918" y1="5.64461" x2="22.9854" y2="24.3997" gradientUnits="userSpaceOnUse">
<stop stop-color="#57BFFF"/>
<stop offset="1" stop-color="#239BE5"/>
</linearGradient>
<linearGradient id="paint2_linear_3311_5" x1="16.981" y1="0.464619" x2="6.88206" y2="9.25823" gradientUnits="userSpaceOnUse">
<stop stop-color="#57BFFF"/>
<stop offset="1" stop-color="#239BE5"/>
</linearGradient>
</defs>
</svg>
